<svg width="8" height="27" viewBox="0 0 8 27" fill="none" xmlns="http://www.w3.org/2000/svg">
<path d="M0.211494 24.6753C0.211494 25.959 1.25221 26.9998 2.536 26.9998H5.2126C6.49639 26.9998 7.53711 25.959 7.53711 24.6753V11.5335C7.53711 10.2497 6.49639 9.20898 5.2126 9.20898H2.536C1.25221 9.20898 0.211494 10.2497 0.211494 11.5335V24.6753Z" fill="#EFEFEF"/>
<path d="M2.61948 2.5395H1.33416C0.598182 2.5395 0.00155258 3.13613 0.00155258 3.87211C0.00155258 4.60809 0.598183 5.20472 1.33416 5.20472H2.61948V6.38539C2.61948 7.13585 3.22785 7.74422 3.97832 7.74422C4.72878 7.74422 5.33715 7.13585 5.33715 6.38539V5.20472H6.62247C7.35845 5.20472 7.95508 4.60809 7.95508 3.87211C7.95508 3.13613 7.35845 2.5395 6.62247 2.5395H5.33715V1.35883C5.33715 0.608369 4.72878 0 3.97832 0C3.22785 0 2.61948 0.608369 2.61948 1.35883V2.5395Z" fill="#324EEC"/>
</svg>
